:FULLY-SPECIFIED
:FORCE-ALL-JOINTS-BE-3DOF
:DEGREES
442
root 2.27141 15.6331 -9.07655 3.98363 7.5416 -11.5845
lfemur -49.8184 21.2698 -9.76315
ltibia 59.5991 0 0
lfoot -17.6137 1.4988 0
ltoes 2.07706 0 0
rfemur -15.7607 -13.364 15.5739
rtibia 46.5908 0 0
rfoot -4.79982 -13.8073 0
rtoes -30.6357 0 0
lowerback 4.42257 1.95758 4.7264
upperback 0.832759 2.81378 0.907999
thorax -1.47663 1.38187 -1.885
lowerneck -6.88193 -0.608367 4.97796
upperneck 1.09742 -1.21354 -0.0835563
head 1.51856 -0.572239 -0.906613
lclavicle -3.65861e-14 4.86781e-15 0
lhumerus -42.7028 -22.5966 99.627
lradius 52.6403 0 0
lwrist 7.13666 0 0
lhand -26.6767 -6.52516 0
lfingers 7.12502 0 0
lthumb -0.107981 23.4326 0
rclavicle -3.65861e-14 4.86781e-15 0
rhumerus -48.3162 0.741619 -87.1509
rradius 65.438 0 0
rwrist 10.2625 0 0
rhand -25.7617 -22.1834 0
rfingers 7.12502 0 0
rthumb 0.775742 -772.144 0
443
root 2.20223 15.617 -9.01874 4.09496 9.0771 -11.936
lfemur -50.5377 21.6631 -9.74071
ltibia 59.9724 0 0
lfoot -17.7055 1.11397 0
ltoes 2.05306 0 0
rfemur -14.7507 -12.9777 15.2394
rtibia 45.3036 0 0
rfoot -5.06211 -14.2609 0
rtoes -32.7063 0 0
lowerback 4.36224 1.86706 4.90723
upperback 0.799355 2.70424 1.01508
thorax -1.47881 1.32668 -1.86708
lowerneck -6.90591 -0.729844 4.88316
upperneck 1.01305 -1.36845 -0.0585776
head 1.4889 -0.651333 -0.887208
lclavicle -3.71219e-14 4.46055e-15 0
lhumerus -42.6144 -22.766 99.8009
lradius 52.7067 0 0
lwrist 6.77818 0 0
lhand -26.8567 -6.77834 0
lfingers 7.12502 0 0
lthumb -0.281755 23.1808 0
rclavicle -3.71219e-14 4.46055e-15 0
rhumerus -48.4118 0.454173 -87.0323
rradius 65.4262 0 0
rwrist 10.3355 0 0
rhand -25.9235 -22.3604 0
rfingers 7.12502 0 0
rthumb 0.619487 -772.323 0
444
root 2.13305 15.6009 -8.96093 4.2063 10.6126 -12.2875
lfemur -51.2571 22.0565 -9.71827
ltibia 60.3458 0 0
lfoot -17.7973 0.729138 0
ltoes 2.02907 0 0
rfemur -13.7407 -12.5914 14.905
rtibia 44.0165 0 0
rfoot -5.3244 -14.7146 0
rtoes -34.777 0 0
lowerback 4.30191 1.77654 5.08806
upperback 0.765951 2.5947 1.12215
thorax -1.481 1.27149 -1.84916
lowerneck -6.92989 -0.851321 4.78836
upperneck 0.92868 -1.52335 -0.0335989
head 1.45924 -0.730427 -0.867803
lclavicle -3.76576e-14 4.05328e-15 0
lhumerus -42.526 -22.9355 99.9748
lradius 52.7731 0 0
lwrist 6.41969 0 0
lhand -27.0366 -7.03152 0
lfingers 7.12502 0 0
lthumb -0.455529 22.929 0
rclavicle -3.76576e-14 4.05328e-15 0
rhumerus -48.5074 0.166727 -86.9136
rradius 65.4144 0 0
rwrist 10.4086 0 0
rhand -26.0853 -22.5374 0
rfingers 7.12502 0 0
rthumb 0.463232 -772.502 0
445
root 2.06387 15.5847 -8.90311 4.31763 12.1481 -12.639
lfemur -51.9764 22.4498 -9.69583
ltibia 60.7191 0 0
lfoot -17.8891 0.344305 0
ltoes 2.00507 0 0
rfemur -12.7307 -12.2052 14.5705
rtibia 42.7293 0 0
rfoot -5.58668 -15.1683 0
rtoes -36.8477 0 0
lowerback 4.24158 1.68602 5.26889
upperback 0.732547 2.48516 1.22923
thorax -1.48318 1.2163 -1.83124
lowerneck -6.95387 -0.972799 4.69357
upperneck 0.84431 -1.67825 -0.00862012
head 1.42958 -0.809521 -0.848398
lclavicle -3.81934e-14 3.64601e-15 0
lhumerus -42.4376 -23.1049 100.149
lradius 52.8395 0 0
lwrist 6.06121 0 0
lhand -27.2165 -7.28469 0
lfingers 7.12502 0 0
lthumb -0.629303 22.6772 0
rclavicle -3.81934e-14 3.64601e-15 0
rhumerus -48.603 -0.120719 -86.795
rradius 65.4026 0 0
rwrist 10.4817 0 0
rhand -26.2471 -22.7144 0
rfingers 7.12502 0 0
rthumb 0.306977 -772.681 0
446
root 1.99468 15.5686 -8.8453 4.42897 13.6836 -12.9905
lfemur -52.6958 22.8431 -9.67339
ltibia 61.0925 0 0
lfoot -17.9809 -0.0405268 0
ltoes 1.98108 0 0
rfemur -11.7207 -11.8189 14.236
rtibia 41.4422 0 0
rfoot -5.84897 -15.622 0
rtoes -38.9184 0 0
lowerback 4.18126 1.59549 5.44973
upperback 0.699143 2.37563 1.3363
thorax -1.48537 1.16111 -1.81333
lowerneck -6.97785 -1.09428 4.59877
upperneck 0.75994 -1.83315 0.0163586
head 1.39992 -0.888615 -0.828994
lclavicle -3.87291e-14 3.23874e-15 0
lhumerus -42.3492 -23.2743 100.323
lradius 52.906 0 0
lwrist 5.70272 0 0
lhand -27.3965 -7.53787 0
lfingers 7.12502 0 0
lthumb -0.803077 22.4255 0
rclavicle -3.87291e-14 3.23874e-15 0
rhumerus -48.6986 -0.408165 -86.6763
rradius 65.3908 0 0
rwrist 10.5547 0 0
rhand -26.4089 -22.8914 0
rfingers 7.12502 0 0
rthumb 0.150722 -772.859 0
447
root 1.9255 15.5525 -8.78748 4.5403 15.2191 -13.342
lfemur -53.4151 23.2364 -9.65095
ltibia 61.4658 0 0
lfoot -18.0727 -0.425359 0
ltoes 1.95708 0 0
rfemur -10.7108 -11.4326 13.9015
rtibia 40.155 0 0
rfoot -6.11126 -16.0756 0
rtoes -40.989 0 0
lowerback 4.12093 1.50497 5.63056
upperback 0.66574 2.26609 1.44338
thorax -1.48755 1.10592 -1.79541
lowerneck -7.00183 -1.21575 4.50397
upperneck 0.67557 -1.98806 0.0413373
head 1.37027 -0.967709 -0.809589
lclavicle -3.92649e-14 2.83148e-15 0
lhumerus -42.2608 -23.4437 100.496
lradius 52.9724 0 0
lwrist 5.34424 0 0
lhand -27.5764 -7.79105 0
lfingers 7.12502 0 0
lthumb -0.97685 22.1737 0
rclavicle -3.92649e-14 2.83148e-15 0
rhumerus -48.7941 -0.695611 -86.5577
rradius 65.3791 0 0
rwrist 10.6278 0 0
rhand -26.5707 -23.0684 0
rfingers 7.12502 0 0
rthumb -0.00553351 -773.038 0
448
root 1.85632 15.5363 -8.72967 4.65163 16.7546 -13.6935
lfemur -54.1344 23.6297 -9.62851
ltibia 61.8391 0 0
lfoot -18.1645 -0.810191 0
ltoes 1.93309 0 0
rfemur -9.70076 -11.0463 13.567
rtibia 38.8678 0 0
rfoot -6.37355 -16.5293 0
rtoes -43.0597 0 0
lowerback 4.0606 1.41445 5.81139
upperback 0.632336 2.15655 1.55046
thorax -1.48973 1.05073 -1.77749
lowerneck -7.02581 -1.33723 4.40918
upperneck 0.5912 -2.14296 0.0663161
head 1.34061 -1.0468 -0.790184
lclavicle -3.98006e-14 2.42421e-15 0
lhumerus -42.1724 -23.6131 100.67
lradius 53.0388 0 0
lwrist 4.98575 0 0
lhand -27.7564 -8.04422 0
lfingers 7.12502 0 0
lthumb -1.15062 21.9219 0
rclavicle -3.98006e-14 2.42421e-15 0
rhumerus -48.8897 -0.983057 -86.439
rradius 65.3673 0 0
rwrist 10.7008 0 0
rhand -26.7325 -23.2453 0
rfingers 7.12502 0 0
rthumb -0.161789 -773.217 0
449
root 1.78714 15.5202 -8.67185 4.76297 18.2901 -14.045
lfemur -54.8538 24.023 -9.60607
ltibia 62.2125 0 0
lfoot -18.2563 -1.19502 0
ltoes 1.90909 0 0
rfemur -8.69077 -10.66 13.2325
rtibia 37.5807 0 0
rfoot -6.63584 -16.983 0
rtoes -45.1304 0 0
lowerback 4.00027 1.32393 5.99222
upperback 0.598932 2.04701 1.65753
thorax -1.49192 0.995545 -1.75957
lowerneck -7.04979 -1.45871 4.31438
upperneck 0.50683 -2.29786 0.0912948
head 1.31095 -1.1259 -0.770779
lclavicle -4.03364e-14 2.01694e-15 0
lhumerus -42.084 -23.7825 100.844
lradius 53.1052 0 0
lwrist 4.62727 0 0
lhand -27.9363 -8.2974 0
lfingers 7.12502 0 0
lthumb -1.3244 21.6701 0
rclavicle -4.03364e-14 2.01694e-15 0
rhumerus -48.9853 -1.2705 -86.3204
rradius 65.3555 0 0
rwrist 10.7739 0 0
rhand -26.8943 -23.4223 0
rfingers 7.12502 0 0
rthumb -0.318044 -773.396 0
450
root 1.71795 15.5041 -8.61404 4.8743 19.8256 -14.3965
lfemur -55.5731 24.4163 -9.58363
ltibia 62.5858 0 0
lfoot -18.3481 -1.57986 0
ltoes 1.8851 0 0
rfemur -7.68078 -10.2738 12.8981
rtibia 36.2935 0 0
rfoot -6.89812 -17.4367 0
rtoes -47.2011 0 0
lowerback 3.93994 1.2334 6.17306
upperback 0.565528 1.93748 1.76461
thorax -1.4941 0.940355 -1.74165
lowerneck -7.07377 -1.58019 4.21958
upperneck 0.42246 -2.45276 0.116274
head 1.28129 -1.20499 -0.751375
lclavicle -4.08721e-14 1.60967e-15 0
lhumerus -41.9956 -23.952 101.018
lradius 53.1717 0 0
lwrist 4.26878 0 0
lhand -28.1162 -8.55058 0
lfingers 7.12502 0 0
lthumb -1.49817 21.4184 0
rclavicle -4.08721e-14 1.60967e-15 0
rhumerus -49.0809 -1.55795 -86.2017
rradius 65.3437 0 0
rwrist 10.847 0 0
rhand -27.0561 -23.5993 0
rfingers 7.12502 0 0
rthumb -0.474299 -773.574 0
451
root 1.64877 15.4879 -8.55622 4.98564 21.3611 -14.748
lfemur -56.2925 24.8096 -9.56119
ltibia 62.9592 0 0
lfoot -18.4399 -1.96469 0
ltoes 1.8611 0 0
rfemur -6.67078 -9.88747 12.5636
rtibia 35.0064 0 0
rfoot -7.16041 -17.8903 0
rtoes -49.2717 0 0
lowerback 3.87961 1.14288 6.35389
upperback 0.532124 1.82794 1.87168
thorax -1.49629 0.885165 -1.72373
lowerneck -7.09775 -1.70166 4.12479
upperneck 0.33809 -2.60767 0.141252
head 1.25163 -1.28409 -0.73197
lclavicle -4.14079e-14 1.20241e-15 0
lhumerus -41.9072 -24.1214 101.192
lradius 53.2381 0 0
lwrist 3.9103 0 0
lhand -28.2962 -8.80375 0
lfingers 7.12502 0 0
lthumb -1.67195 21.1666 0
rclavicle -4.14079e-14 1.20241e-15 0
rhumerus -49.1765 -1.84539 -86.0831
rradius 65.3319 0 0
rwrist 10.92 0 0
rhand -27.2179 -23.7763 0
rfingers 7.12502 0 0
rthumb -0.630554 -773.753 0
452
root 1.57959 15.4718 -8.49841 5.09697 22.8966 -15.0995
lfemur -57.0118 25.2029 -9.53875
ltibia 63.3325 0 0
lfoot -18.5317 -2.34952 0
ltoes 1.83711 0 0
rfemur -5.66079 -9.50119 12.2291
rtibia 33.7192 0 0
rfoot -7.4227 -18.344 0
rtoes -51.3424 0 0
lowerback 3.81928 1.05236 6.53472
upperback 0.49872 1.7184 1.97876
thorax -1.49847 0.829975 -1.70581
lowerneck -7.12173 -1.82314 4.02999
upperneck 0.25372 -2.76257 0.166231
head 1.22197 -1.36318 -0.712565
lclavicle -4.19436e-14 7.95139e-16 0
lhumerus -41.8188 -24.2908 101.366
lradius 53.3045 0 0
lwrist 3.55181 0 0
lhand -28.4761 -9.05693 0
lfingers 7.12502 0 0
lthumb -1.84572 20.9148 0
rclavicle -4.19436e-14 7.95139e-16 0
rhumerus -49.2721 -2.13284 -85.9644
rradius 65.3201 0 0
rwrist 10.9931 0 0
rhand -27.3797 -23.9533 0
rfingers 7.12502 0 0
rthumb -0.786809 -773.932 0
453
root 1.6595 15.4968 -8.4429 5.13981 24.2917 -14.7495
lfemur -56.309 24.1952 -9.87851
ltibia 62.8854 0 0
lfoot -18.6303 -2.41053 0
ltoes 2.24925 0 0
rfemur -6.83209 -9.19408 12.1994
rtibia 34.8685 0 0
rfoot -6.93614 -17.7501 0
rtoes -50.4729 0 0
lowerback 3.83039 1.01394 6.34711
upperback 0.487612 1.65854 1.94533
thorax -1.51873 0.801214 -1.63202
lowerneck -7.15995 -1.99331 3.90319
upperneck 0.40432 -2.9827 0.205269
head 1.28548 -1.47091 -0.693667
lclavicle -4.12983e-14 6.04839e-16 0
lhumerus -41.9926 -24.4714 101.67
lradius 53.3649 0 0
lwrist 3.5552 0 0
lhand -27.6428 -8.82403 0
lfingers 7.12502 0 0
lthumb -1.0439 21.0849 0
rclavicle -4.12983e-14 6.04839e-16 0
rhumerus -49.204 -1.5064 -86.221
rradius 65.6018 0 0
rwrist 11.3584 0 0
rhand -27.0157 -23.8715 0
rfingers 7.12502 0 0
rthumb -0.435472 -773.839 0
454
root 1.73942 15.5217 -8.3874 5.18266 25.6868 -14.3995
lfemur -55.6062 23.1874 -10.2183
ltibia 62.4383 0 0
lfoot -18.7289 -2.47153 0
ltoes 2.66138 0 0
rfemur -8.00339 -8.88696 12.1697
rtibia 36.0178 0 0
rfoot -6.44958 -17.1562 0
rtoes -49.6034 0 0
lowerback 3.84151 0.975529 6.15949
upperback 0.476504 1.59868 1.91189
thorax -1.539 0.772452 -1.55824
lowerneck -7.19817 -2.16347 3.77638
upperneck 0.554921 -3.20284 0.244308
head 1.34898 -1.57865 -0.674768
lclavicle -4.0653e-14 4.14539e-16 0
lhumerus -42.1665 -24.6521 101.975
lradius 53.4253 0 0
lwrist 3.5586 0 0
lhand -26.8094 -8.59113 0
lfingers 7.12502 0 0
lthumb -0.242075 21.255 0
rclavicle -4.0653e-14 4.14539e-16 0
rhumerus -49.1359 -0.879965 -86.4776
rradius 65.8836 0 0
rwrist 11.7238 0 0
rhand -26.6517 -23.7897 0
rfingers 7.12502 0 0
rthumb -0.0841354 -773.747 0
455
root 1.81933 15.5467 -8.33189 5.2255 27.0818 -14.0495
lfemur -54.9034 22.1797 -10.558
ltibia 61.9913 0 0
lfoot -18.8275 -2.53254 0
ltoes 3.07352 0 0
rfemur -9.17468 -8.57985 12.1399
rtibia 37.1672 0 0
rfoot -5.96302 -16.5623 0
rtoes -48.7338 0 0
lowerback 3.85262 0.937114 5.97188
upperback 0.465395 1.53882 1.87846
thorax -1.55926 0.743691 -1.48445
lowerneck -7.23638 -2.33364 3.64958
upperneck 0.705521 -3.42297 0.283346
head 1.41249 -1.68638 -0.65587
lclavicle -4.00077e-14 2.24239e-16 0
lhumerus -42.3403 -24.8327 102.279
lradius 53.4858 0 0
lwrist 3.56199 0 0
lhand -25.9761 -8.35823 0
lfingers 7.12502 0 0
lthumb 0.559747 21.425 0
rclavicle -4.00077e-14 2.24239e-16 0
rhumerus -49.0678 -0.253527 -86.7341
rradius 66.1653 0 0
rwrist 12.0891 0 0
rhand -26.2877 -23.7078 0
rfingers 7.12502 0 0
rthumb 0.267201 -773.654 0
